<svg width="21" height="20" viewBox="0 0 21 20" fill="none" xmlns="http://www.w3.org/2000/svg">
<path fill-rule="evenodd" clip-rule="evenodd" d="M9.67526 0C4.36695 0 0.0637207 4.20819 0.0637207 9.39926C0.0637207 14.5903 4.36695 18.7985 9.67526 18.7985C11.9456 18.7985 14.0321 18.0287 15.6767 16.7415L18.8008 19.7886L18.8839 19.8586C19.1739 20.0685 19.5851 20.0446 19.8476 19.7873C20.1363 19.5043 20.1357 19.0459 19.8462 18.7636L16.7589 15.7523C18.3287 14.0794 19.2868 11.8487 19.2868 9.39926C19.2868 4.20819 14.9836 0 9.67526 0ZM9.67526 1.44774C14.1659 1.44774 17.8064 5.00776 17.8064 9.39926C17.8064 13.7908 14.1659 17.3508 9.67526 17.3508C5.18458 17.3508 1.54416 13.7908 1.54416 9.39926C1.54416 5.00776 5.18458 1.44774 9.67526 1.44774Z" fill="#11142D"/>
</svg>
