<svg width="16" height="16" viewBox="0 0 16 16" fill="none" xmlns="http://www.w3.org/2000/svg">
<path d="M14.2222 4.30938L13.2097 5.32188L10.6785 2.7875L11.691 1.775C11.8972 1.56875 12.2566 1.56875 12.4628 1.775L14.2222 3.5375C14.4347 3.75 14.4347 4.09688 14.2222 4.30938ZM5.76284 12.7781L3.23159 10.2438L9.77534 3.69063L12.3066 6.225L5.76284 12.7781ZM2.64722 11.4656L4.54097 13.3625L1.90347 14.1063L2.64722 11.4656ZM15.1253 2.63438L13.366 0.87188C13.0222 0.52813 11.7816 -0.12187 10.791 0.87188L1.87534 9.79375C1.79722 9.87188 1.74097 9.96563 1.71284 10.0719L0.369094 14.8563C0.306594 15.0781 0.372219 15.3156 0.531594 15.4813C0.694094 15.6469 1.01909 15.675 1.15659 15.6438L5.93784 14.2969C6.04409 14.2688 6.13784 14.2125 6.21597 14.1344L15.1253 5.2125C15.8347 4.50313 15.8347 3.34688 15.1253 2.63438Z" fill="#5E5D5D"/>
</svg>
