<svg width="11" height="19" viewBox="0 0 11 19" fill="none" xmlns="http://www.w3.org/2000/svg">
<path d="M9.93954 0.00676069H7.53097C6.92705 -0.0274711 6.32282 0.0685774 5.75906 0.288425C5.19531 0.508273 4.68514 0.846806 4.26299 1.28118C3.84083 1.71556 3.5165 2.23567 3.31189 2.80643C3.10728 3.37718 3.02714 3.98531 3.07688 4.58976V6.70676H0.655355C0.554842 6.70676 0.458444 6.7468 0.38737 6.81806C0.316296 6.88933 0.276367 6.98598 0.276367 7.08676V10.1488C0.276367 10.2495 0.316296 10.3462 0.38737 10.4175C0.458444 10.4887 0.554842 10.5288 0.655355 10.5288H3.07688V18.2548C3.07688 18.3555 3.11681 18.4522 3.18788 18.5235C3.25896 18.5947 3.35535 18.6348 3.45587 18.6348H6.61542C6.71594 18.6348 6.81233 18.5947 6.88341 18.5235C6.95448 18.4522 6.99441 18.3555 6.99441 18.2548V10.5248H9.82584C9.87561 10.5248 9.92489 10.5149 9.97087 10.4958C10.0169 10.4767 10.0586 10.4487 10.0938 10.4135C10.129 10.3782 10.1569 10.3363 10.176 10.2902C10.195 10.2441 10.2048 10.1947 10.2048 10.1448V7.08276C10.2048 6.98198 10.1649 6.88533 10.0938 6.81406C10.0227 6.7428 9.92635 6.70276 9.82584 6.70276H6.99341V4.90676C6.99341 4.04576 7.19786 3.60676 8.31687 3.60676H9.93954C10.04 3.60676 10.1364 3.56673 10.2075 3.49546C10.2786 3.4242 10.3185 3.32754 10.3185 3.22676V0.390761C10.319 0.340523 10.3096 0.290679 10.2908 0.244112C10.272 0.197546 10.2442 0.155182 10.2089 0.119471C10.1737 0.0837596 10.1317 0.0554107 10.0855 0.0360643C10.0393 0.0167179 9.98964 0.0067579 9.93954 0.00676069Z" fill="#016270"/>
</svg>
