<svg width="19" height="18" viewBox="0 0 19 18" fill="none" xmlns="http://www.w3.org/2000/svg">
<path d="M18.4518 5.262C18.4374 4.51997 18.2971 3.78582 18.0369 3.091C17.8068 2.49603 17.4554 1.95576 17.0051 1.50479C16.5548 1.05381 16.0156 0.702043 15.4219 0.472C14.7289 0.211454 13.9967 0.0707879 13.2567 0.056C12.3013 0.011 11.9981 0 9.57557 0C7.15304 0 6.84786 0.011 5.89541 0.052C5.15536 0.0664973 4.42317 0.207172 3.7302 0.468C3.1337 0.691826 2.59342 1.0441 2.14743 1.5C1.69408 1.94808 1.34324 2.48957 1.11918 3.087C0.857643 3.78161 0.715665 4.51572 0.699301 5.258C0.658411 6.216 0.648438 6.52 0.648438 8.95C0.648438 11.38 0.658411 11.684 0.699301 12.639C0.714041 13.3811 0.854679 14.1152 1.11519 14.81C1.34491 15.4047 1.69588 15.9448 2.14564 16.3958C2.59541 16.8468 3.13407 17.1987 3.7272 17.429C4.42026 17.6895 5.1524 17.8302 5.89242 17.845C6.84387 17.887 7.14806 17.897 9.57058 17.897C11.9931 17.897 12.2973 17.887 13.2487 17.845C13.9888 17.8306 14.721 17.6899 15.414 17.429C16.0073 17.199 16.5461 16.8472 16.9959 16.3962C17.4457 15.9452 17.7966 15.4049 18.026 14.81C18.2857 14.1151 18.426 13.381 18.4409 12.639C18.4827 11.685 18.4927 11.38 18.4927 8.951C18.4927 6.522 18.4927 6.217 18.4478 5.263L18.4518 5.262ZM16.8441 12.569C16.8383 13.1363 16.7344 13.6983 16.537 14.23C16.3882 14.6162 16.1605 14.967 15.8685 15.2598C15.5765 15.5525 15.2267 15.7808 14.8415 15.93C14.3111 16.1276 13.7507 16.2318 13.1849 16.238C12.2434 16.28 11.9612 16.29 9.57956 16.29C7.19792 16.29 6.91169 16.28 5.9742 16.238C5.40839 16.2323 4.84787 16.1281 4.31763 15.93C3.93006 15.7871 3.57962 15.5584 3.29237 15.261C2.99682 14.9723 2.76922 14.6211 2.62615 14.233C2.42909 13.7012 2.32517 13.1393 2.31897 12.572C2.27708 11.628 2.26711 11.345 2.26711 8.957C2.26711 6.569 2.27708 6.282 2.31897 5.342C2.32469 4.77468 2.42862 4.21266 2.62615 3.681C2.76744 3.29232 2.99529 2.94108 3.29237 2.654C3.58082 2.35731 3.9318 2.12907 4.31962 1.986C4.85 1.78845 5.41043 1.68426 5.97619 1.678C6.91767 1.636 7.19992 1.626 9.58155 1.626C11.9632 1.626 12.2494 1.637 13.1869 1.678C13.7527 1.68383 14.3132 1.78805 14.8435 1.986C15.231 2.12854 15.5814 2.35687 15.8687 2.654C16.1643 2.94273 16.3919 3.29392 16.535 3.682C16.732 4.2138 16.8359 4.77573 16.8421 5.343C16.884 6.287 16.894 6.57 16.894 8.958C16.894 11.346 16.883 11.626 16.8421 12.57L16.8441 12.569Z" fill="#016270"/>
<path d="M9.57502 4.353C8.66766 4.353 7.78068 4.62278 7.02623 5.12824C6.27178 5.63369 5.68376 6.35211 5.33653 7.19265C4.9893 8.03319 4.89844 8.95811 5.07546 9.85042C5.25248 10.7427 5.68942 11.5624 6.33102 12.2057C6.97263 12.849 7.79007 13.2871 8.68 13.4646C9.56994 13.6421 10.4924 13.551 11.3307 13.2028C12.169 12.8547 12.8855 12.2651 13.3896 11.5086C13.8937 10.7522 14.1628 9.8628 14.1628 8.95301C14.1628 7.73301 13.6794 6.56297 12.819 5.7003C11.9587 4.83764 10.7918 4.353 9.57502 4.353ZM9.57502 11.933C8.98682 11.933 8.41182 11.7581 7.92274 11.4304C7.43366 11.1028 7.05247 10.6371 6.82737 10.0922C6.60228 9.54728 6.54338 8.94769 6.65813 8.36924C6.77289 7.79078 7.05614 7.25945 7.47206 6.84241C7.88799 6.42537 8.41791 6.14136 8.99482 6.0263C9.57173 5.91124 10.1697 5.97029 10.7131 6.19599C11.2566 6.42169 11.7211 6.8039 12.0479 7.29429C12.3746 7.78468 12.5491 8.36122 12.5491 8.95101C12.5488 9.7418 12.2354 10.5001 11.6777 11.0593C11.12 11.6185 10.3637 11.9327 9.57502 11.933Z" fill="#016270"/>
<path d="M15.4147 4.171C15.4147 4.38322 15.3519 4.59067 15.2343 4.76713C15.1168 4.94358 14.9496 5.08111 14.7541 5.16233C14.5585 5.24354 14.3434 5.26479 14.1358 5.22338C13.9282 5.18198 13.7375 5.07979 13.5879 4.92973C13.4382 4.77967 13.3363 4.58847 13.295 4.38033C13.2537 4.17219 13.2749 3.95645 13.3559 3.76038C13.4369 3.56431 13.574 3.39674 13.75 3.27883C13.926 3.16093 14.1329 3.09799 14.3446 3.09799C14.6284 3.09799 14.9006 3.21104 15.1013 3.41227C15.302 3.6135 15.4147 3.88642 15.4147 4.171Z" fill="#016270"/>
</svg>
