<svg width="20" height="16" viewBox="0 0 20 16" fill="none" xmlns="http://www.w3.org/2000/svg">
<path d="M19.3454 1.82552C18.6369 2.13625 17.8858 2.33851 17.1174 2.42552C17.9295 1.95099 18.5348 1.18852 18.8138 0.288523C18.0555 0.741581 17.2243 1.05866 16.3574 1.22552C16.0018 0.846305 15.574 0.542489 15.0992 0.332068C14.6244 0.121647 14.1123 0.00889808 13.5933 0.000505731C13.0743 -0.00788662 12.5588 0.0882474 12.0775 0.283209C11.5962 0.478171 11.1588 0.767997 10.7913 1.13552C10.4256 1.49129 10.1365 1.9184 9.94184 2.39051C9.74715 2.86262 9.651 3.36972 9.6593 3.88052C9.66168 4.17952 9.6951 4.47746 9.75903 4.76952C8.20642 4.69583 6.68805 4.28648 5.30793 3.56952C3.94574 2.87285 2.74384 1.89834 1.77937 0.708521C1.44457 1.28484 1.26322 1.9378 1.25274 2.60467C1.24226 3.27155 1.40301 3.92992 1.71953 4.51652C2.02032 5.073 2.45246 5.54714 2.97816 5.89753C2.36412 5.8759 1.76421 5.70683 1.22884 5.40453V5.45253C1.21651 6.35497 1.52918 7.2316 2.10949 7.92152C2.67127 8.61529 3.45796 9.08948 4.33254 9.26152C4.00016 9.3491 3.65793 9.39347 3.31427 9.39352C3.06944 9.39173 2.82508 9.37167 2.58322 9.33352C2.83186 10.1039 3.31415 10.7773 3.96279 11.2597C4.61144 11.7422 5.39409 12.0095 6.20155 12.0245C4.83782 13.1151 3.14067 13.7007 1.39639 13.6825C1.08459 13.6846 0.772921 13.6689 0.462891 13.6355C2.23062 14.7882 4.29743 15.394 6.406 15.3775C7.7241 15.387 9.0337 15.1653 10.2757 14.7225C11.4039 14.3309 12.4515 13.7365 13.3674 12.9685C14.2209 12.2365 14.9649 11.3851 15.5765 10.4405C16.181 9.51877 16.6474 8.51306 16.9608 7.45552C17.2608 6.44444 17.4146 5.39542 17.4176 4.34052C17.4176 4.11652 17.4136 3.94986 17.4056 3.84052C18.1636 3.28647 18.82 2.60468 19.3454 1.82552Z" fill="#016270"/>
</svg>
