<svg width="18" height="15" viewBox="0 0 18 15" fill="none" xmlns="http://www.w3.org/2000/svg">
<path d="M16.5001 3H14.0001L12.7501 0.5H5.25008L4.00008 3H1.50008C1.27907 3 1.06711 3.0878 0.910826 3.24408C0.754545 3.40036 0.666748 3.61232 0.666748 3.83333V13.8333C0.666748 14.0543 0.754545 14.2663 0.910826 14.4226C1.06711 14.5789 1.27907 14.6667 1.50008 14.6667H16.5001C16.7211 14.6667 16.9331 14.5789 17.0893 14.4226C17.2456 14.2663 17.3334 14.0543 17.3334 13.8333V3.83333C17.3334 3.61232 17.2456 3.40036 17.0893 3.24408C16.9331 3.0878 16.7211 3 16.5001 3ZM5.13342 4.66667L6.38341 2.16667H11.6167L12.8667 4.66667H15.6667V6.33333H12.8167C12.4919 5.59153 11.9579 4.96048 11.28 4.51736C10.6022 4.07424 9.80991 3.83824 9.00008 3.83824C8.19026 3.83824 7.39798 4.07424 6.72015 4.51736C6.04231 4.96048 5.5083 5.59153 5.18341 6.33333H2.33341V4.66667H5.13342ZM11.6001 8C11.6017 8.51659 11.4499 9.02203 11.164 9.45224C10.878 9.88245 10.4707 10.2181 9.99377 10.4165C9.51682 10.615 8.99168 10.6673 8.48494 10.5669C7.9782 10.4666 7.51267 10.218 7.14739 9.85269C6.78211 9.48741 6.53352 9.02188 6.43314 8.51514C6.33276 8.0084 6.38512 7.48326 6.58357 7.00631C6.78202 6.52936 7.11763 6.12208 7.54784 5.83611C7.97805 5.55014 8.4835 5.39835 9.00008 5.4C9.69041 5.4 10.3526 5.67366 10.8415 6.16101C11.3304 6.64837 11.6062 7.30967 11.6084 8H11.6001ZM2.33341 13V7.16667H4.91675C4.79387 7.77182 4.80703 8.39671 4.95528 8.99615C5.10353 9.5956 5.38316 10.1546 5.77394 10.6327C6.16473 11.1108 6.6569 11.4961 7.21485 11.7607C7.7728 12.0252 8.38258 12.1625 9.00008 12.1625C9.61758 12.1625 10.2274 12.0252 10.7853 11.7607C11.3433 11.4961 11.8354 11.1108 12.2262 10.6327C12.617 10.1546 12.8966 9.5956 13.0449 8.99615C13.1931 8.39671 13.2063 7.77182 13.0834 7.16667H15.6667V13H2.33341Z" fill="#45B2DD"/>
</svg>
