<svg width="14" height="14" viewBox="0 0 14 14" fill="none" xmlns="http://www.w3.org/2000/svg">
<path d="M7 14C10.866 14 14 10.866 14 7C14 3.13401 10.866 0 7 0C3.13401 0 0 3.13401 0 7C0 10.866 3.13401 14 7 14Z" fill="#6DAE4F"/>
<path d="M7 0C8.85652 0 10.637 0.737498 11.9497 2.05025C13.2625 3.36301 14 5.14348 14 7C14 8.85652 13.2625 10.637 11.9497 11.9497C10.637 13.2625 8.85652 14 7 14C5.14348 14 3.36301 13.2625 2.05025 11.9497C0.737498 10.637 0 8.85652 0 7C0 5.14348 0.737498 3.36301 2.05025 2.05025C3.36301 0.737498 5.14348 0 7 0ZM7 -1C4.87827 -1 2.84344 -0.157145 1.34315 1.34315C-0.157145 2.84344 -1 4.87827 -1 7C-1 9.12173 -0.157145 11.1566 1.34315 12.6569C2.84344 14.1571 4.87827 15 7 15C9.12173 15 11.1566 14.1571 12.6569 12.6569C14.1571 11.1566 15 9.12173 15 7C15 4.87827 14.1571 2.84344 12.6569 1.34315C11.1566 -0.157145 9.12173 -1 7 -1V-1Z" fill="white"/>
<path d="M11.133 8.22397C11.1149 7.43824 10.9938 6.65827 10.773 5.90397C10.1677 5.41747 9.70768 4.77407 9.44305 4.04397C9.28305 3.51397 9.17305 3.32397 8.70305 3.31397C8.60739 3.32267 8.51444 3.35042 8.42967 3.39559C8.34489 3.44076 8.27002 3.50244 8.20945 3.57699C8.14888 3.65154 8.10384 3.73745 8.07698 3.82967C8.05011 3.9219 8.04198 4.01856 8.05305 4.11397C8.05905 4.35397 8.07905 4.59497 8.11305 4.83397C8.25005 5.48897 8.44305 6.13197 8.69305 6.75397L4.19305 3.33397C4.11798 3.26086 4.02843 3.20428 3.93017 3.16789C3.8319 3.1315 3.7271 3.11611 3.62252 3.1227C3.51794 3.1293 3.4159 3.15774 3.32298 3.20618C3.23006 3.25463 3.14833 3.32201 3.08305 3.40397C3.03342 3.48693 3.00101 3.57902 2.98774 3.67477C2.97448 3.77052 2.98062 3.86795 3.00582 3.96127C3.03102 4.0546 3.07475 4.14189 3.1344 4.21794C3.19406 4.294 3.26842 4.35727 3.35305 4.40397L5.60305 6.10397L6.19305 6.66397L2.62305 3.95397C2.55148 3.8818 2.46526 3.82584 2.3702 3.78987C2.27515 3.75389 2.17348 3.73874 2.07207 3.74544C1.97065 3.75215 1.87186 3.78054 1.78237 3.82872C1.69287 3.87689 1.61476 3.94371 1.55332 4.02467C1.49188 4.10563 1.44853 4.19884 1.42622 4.298C1.4039 4.39715 1.40313 4.49994 1.42396 4.59942C1.44479 4.69889 1.48674 4.79274 1.54696 4.87461C1.60718 4.95648 1.68428 5.02447 1.77305 5.07397L4.02305 6.77397L5.37305 7.77397L2.45305 5.58397C2.37798 5.51086 2.28843 5.45428 2.19017 5.41789C2.0919 5.3815 1.9871 5.36611 1.88252 5.3727C1.77794 5.3793 1.6759 5.40774 1.58298 5.45618C1.49006 5.50463 1.40833 5.57201 1.34305 5.65397C1.03305 6.05397 1.28305 6.46397 1.60305 6.71397L3.85305 8.40397L4.98305 9.25397L2.73305 7.55397C2.66373 7.47851 2.5795 7.41826 2.48568 7.37704C2.39187 7.33583 2.29052 7.31455 2.18805 7.31455C2.08558 7.31455 1.98423 7.33583 1.89041 7.37704C1.79659 7.41826 1.71236 7.47851 1.64305 7.55397C1.58167 7.63951 1.53899 7.73701 1.51778 7.84013C1.49657 7.94325 1.4973 8.04968 1.51994 8.1525C1.54258 8.25532 1.58661 8.35222 1.64917 8.43689C1.71173 8.52157 1.79142 8.59213 1.88305 8.64397L5.98305 11.644C6.57705 12.091 8.05305 12.477 8.70305 11.912" stroke="#165209" stroke-width="1.5" stroke-linecap="round" stroke-linejoin="round"/>
<path fill-rule="evenodd" clip-rule="evenodd" d="M11.613 8.90399L11.193 8.53399C11.1383 7.798 10.9661 7.07551 10.683 6.39399C10.0975 5.70721 9.6829 4.89166 9.47295 4.01399C9.31295 3.48399 9.20295 3.29399 8.73295 3.28399C8.6373 3.29269 8.54434 3.32044 8.45957 3.36561C8.3748 3.41078 8.29993 3.47245 8.23936 3.547C8.17879 3.62155 8.13375 3.70747 8.10688 3.79969C8.08002 3.89191 8.07189 3.98857 8.08296 4.08399C8.08896 4.32399 8.10895 4.56499 8.14295 4.80399C8.25795 5.43499 8.44296 6.05199 8.69296 6.64399L8.50296 6.53399L4.19296 3.22399C4.11789 3.15087 4.02834 3.09429 3.93007 3.0579C3.83181 3.02152 3.72701 3.00612 3.62242 3.01272C3.51784 3.01931 3.41581 3.04775 3.32289 3.0962C3.22997 3.14464 3.14824 3.21202 3.08296 3.29399C3.02478 3.3795 2.98543 3.47639 2.96752 3.57825C2.94962 3.68011 2.95356 3.78461 2.97909 3.88483C3.00461 3.98506 3.05115 4.07871 3.1156 4.15959C3.18005 4.24047 3.26096 4.30673 3.35296 4.35399L5.55296 6.04399L6.19296 6.55399L2.62295 3.84399C2.54856 3.77029 2.45956 3.713 2.36168 3.67578C2.2638 3.63856 2.15922 3.62226 2.05465 3.62791C1.95009 3.63356 1.84787 3.66105 1.75457 3.7086C1.66128 3.75615 1.57897 3.8227 1.51296 3.90399C1.45595 3.98935 1.41733 4.08564 1.39955 4.18674C1.38177 4.28783 1.38522 4.39152 1.40967 4.49121C1.43412 4.5909 1.47905 4.68441 1.54159 4.76581C1.60413 4.8472 1.68292 4.91469 1.77296 4.96399L4.02295 6.66399L5.37296 7.66399L2.45296 5.48399C2.37934 5.40884 2.29055 5.35025 2.19251 5.31213C2.09447 5.274 1.98942 5.25722 1.88438 5.2629C1.77934 5.26858 1.67672 5.29659 1.58336 5.34506C1.48999 5.39353 1.40804 5.46134 1.34296 5.54399C1.28441 5.62887 1.24451 5.72519 1.22588 5.82661C1.20725 5.92803 1.21032 6.03224 1.23488 6.13238C1.25945 6.23253 1.30495 6.32633 1.36839 6.40762C1.43183 6.48891 1.51178 6.55583 1.60296 6.60399L3.85296 8.29399L4.98295 9.14399L2.73296 7.45399C2.66536 7.3757 2.5817 7.31288 2.48765 7.26983C2.39361 7.22678 2.29139 7.20449 2.18796 7.20449C2.08452 7.20449 1.9823 7.22678 1.88826 7.26983C1.79421 7.31288 1.71055 7.3757 1.64295 7.45399C1.58174 7.53871 1.53917 7.63544 1.51805 7.73781C1.49692 7.84018 1.49773 7.94586 1.5204 8.04789C1.54307 8.14992 1.58711 8.246 1.6496 8.32978C1.71209 8.41357 1.79162 8.48316 1.88295 8.53399L5.98295 11.644C6.2771 11.8653 6.61312 12.0247 6.97065 12.1123C7.32818 12.2 7.69978 12.2142 8.06295 12.154C8.60096 12.466 9.07095 12.466 9.47295 12.154C10.075 11.685 9.87696 11.643 10.323 11.024C10.8277 10.3656 11.2602 9.65486 11.613 8.90399Z" fill="#DCF0CB"/>
<path d="M11.133 8.22397C11.1149 7.43824 10.9938 6.65827 10.773 5.90397C10.1677 5.41747 9.70768 4.77407 9.44305 4.04397C9.28305 3.51397 9.17305 3.32397 8.70305 3.31397C8.60739 3.32267 8.51444 3.35042 8.42967 3.39559C8.34489 3.44076 8.27002 3.50244 8.20945 3.57699C8.14888 3.65154 8.10384 3.73745 8.07698 3.82967C8.05011 3.9219 8.04198 4.01856 8.05305 4.11397C8.05905 4.35397 8.07905 4.59497 8.11305 4.83397C8.25005 5.48897 8.44305 6.13197 8.69305 6.75397L4.19305 3.33397C4.11798 3.26086 4.02843 3.20428 3.93017 3.16789C3.8319 3.1315 3.7271 3.11611 3.62252 3.1227C3.51794 3.1293 3.4159 3.15774 3.32298 3.20618C3.23006 3.25463 3.14833 3.32201 3.08305 3.40397C3.03342 3.48693 3.00101 3.57902 2.98774 3.67477C2.97448 3.77052 2.98062 3.86795 3.00582 3.96127C3.03102 4.0546 3.07475 4.14189 3.1344 4.21794C3.19406 4.294 3.26842 4.35727 3.35305 4.40397L5.60305 6.10397L6.19305 6.66397L2.62305 3.95397C2.55148 3.8818 2.46526 3.82584 2.3702 3.78987C2.27515 3.75389 2.17348 3.73874 2.07207 3.74544C1.97065 3.75215 1.87186 3.78054 1.78237 3.82872C1.69287 3.87689 1.61476 3.94371 1.55332 4.02467C1.49188 4.10563 1.44853 4.19884 1.42622 4.298C1.4039 4.39715 1.40313 4.49994 1.42396 4.59942C1.44479 4.69889 1.48674 4.79274 1.54696 4.87461C1.60718 4.95648 1.68428 5.02447 1.77305 5.07397L4.02305 6.77397L5.37305 7.77397L2.45305 5.58397C2.37798 5.51086 2.28843 5.45428 2.19017 5.41789C2.0919 5.3815 1.9871 5.36611 1.88252 5.3727C1.77794 5.3793 1.6759 5.40774 1.58298 5.45618C1.49006 5.50463 1.40833 5.57201 1.34305 5.65397C1.03305 6.05397 1.28305 6.46397 1.60305 6.71397L3.85305 8.40397L4.98305 9.25397L2.73305 7.55397C2.66373 7.47851 2.5795 7.41826 2.48568 7.37704C2.39187 7.33583 2.29052 7.31455 2.18805 7.31455C2.08558 7.31455 1.98423 7.33583 1.89041 7.37704C1.79659 7.41826 1.71236 7.47851 1.64305 7.55397C1.58167 7.63951 1.53899 7.73701 1.51778 7.84013C1.49657 7.94325 1.4973 8.04968 1.51994 8.1525C1.54258 8.25532 1.58661 8.35222 1.64917 8.43689C1.71173 8.52157 1.79142 8.59213 1.88305 8.64397L5.98305 11.644C6.57705 12.091 7.96905 12.386 8.70305 12.264" stroke="#165209" stroke-width="0.5" stroke-linecap="round" stroke-linejoin="round"/>
<path fill-rule="evenodd" clip-rule="evenodd" d="M13.7669 10.388C13.5646 10.1715 13.4082 9.91642 13.3069 9.638C13.3069 9.418 13.2469 9.208 13.2069 8.988C13.1756 8.60425 13.0521 8.23374 12.8469 7.908C12.2673 7.21735 11.8534 6.40324 11.6369 5.528C11.4769 4.998 11.3669 4.808 10.8969 4.798C10.8012 4.80669 10.7083 4.83445 10.6235 4.87962C10.5387 4.92479 10.4639 4.98646 10.4033 5.06101C10.3427 5.13556 10.2977 5.22147 10.2708 5.3137C10.244 5.40592 10.2358 5.50258 10.2469 5.598C10.2539 5.838 10.2739 6.078 10.3069 6.318C10.4869 7.238 10.6769 7.998 10.6969 8.048L6.4069 4.838C6.3326 4.76342 6.24326 4.70554 6.14482 4.66825C6.04638 4.63095 5.94111 4.61508 5.83605 4.62171C5.73099 4.62833 5.62855 4.6573 5.53558 4.70667C5.4426 4.75604 5.36123 4.82467 5.2969 4.908C5.24687 4.99035 5.21389 5.0819 5.19989 5.17723C5.1859 5.27256 5.19118 5.36973 5.21543 5.46298C5.23967 5.55623 5.28239 5.64367 5.34104 5.72011C5.3997 5.79655 5.4731 5.86044 5.5569 5.908L7.8069 7.608L8.4869 8.168L4.8869 5.458C4.81328 5.38285 4.7245 5.32426 4.62645 5.28614C4.52841 5.24801 4.42337 5.23123 4.31832 5.23691C4.21328 5.24258 4.11066 5.27059 4.0173 5.31906C3.92394 5.36753 3.84198 5.43535 3.7769 5.518C3.71835 5.60288 3.67845 5.6992 3.65982 5.80061C3.64119 5.90203 3.64426 6.00625 3.66882 6.10639C3.69339 6.20654 3.73889 6.30034 3.80233 6.38163C3.86577 6.46292 3.94572 6.52984 4.0369 6.578L6.2869 8.278L7.6369 9.278L4.7069 7.088C4.63204 7.01567 4.54277 6.95995 4.44492 6.92447C4.34707 6.88899 4.24283 6.87455 4.13901 6.8821C4.0352 6.88965 3.93415 6.91902 3.84246 6.96828C3.75076 7.01755 3.6705 7.0856 3.6069 7.168C3.2969 7.568 3.5369 7.978 3.8669 8.228L6.1169 9.908L7.2369 10.758L4.9469 9.058C4.80649 8.93601 4.62481 8.87223 4.43896 8.87966C4.25312 8.8871 4.07711 8.96519 3.9469 9.098C3.88568 9.17994 3.84212 9.27369 3.81895 9.37332C3.79579 9.47295 3.79354 9.57629 3.81233 9.67684C3.83113 9.77738 3.87056 9.87294 3.92814 9.95748C3.98573 10.042 4.06021 10.1137 4.1469 10.168L8.1469 13.168C8.4809 13.418 8.8669 13.589 9.2769 13.668L9.8569 13.758C10.1619 13.803 10.4569 13.901 10.7269 14.048C10.9136 14.1392 11.1277 14.157 11.3269 14.098C12.0302 13.85 12.6455 13.4015 13.0969 12.808C13.5197 12.2236 13.763 11.5285 13.7969 10.808C13.8223 10.6677 13.812 10.5233 13.7669 10.388Z" stroke="#165209" stroke-width="1.5" stroke-linecap="round" stroke-linejoin="round"/>
<path fill-rule="evenodd" clip-rule="evenodd" d="M13.807 10.338L13.357 9.99801C13.3072 9.26129 13.1348 8.53803 12.847 7.85801C12.2656 7.16856 11.8515 6.35401 11.637 5.47801C11.477 4.94801 11.367 4.75801 10.897 4.74801C10.8013 4.75671 10.7084 4.78446 10.6236 4.82963C10.5388 4.8748 10.464 4.93648 10.4034 5.01103C10.3428 5.08558 10.2978 5.17149 10.2709 5.26371C10.2441 5.35594 10.2359 5.4526 10.247 5.54801C10.254 5.78801 10.274 6.02801 10.307 6.26801C10.487 7.19801 10.677 7.95801 10.697 7.99801L6.40699 4.78801C6.33192 4.7149 6.24237 4.65832 6.1441 4.62193C6.04584 4.58554 5.94104 4.57015 5.83645 4.57674C5.73187 4.58334 5.62984 4.61178 5.53692 4.66022C5.444 4.70867 5.36227 4.77605 5.29699 4.85801C4.98699 5.26801 5.23699 5.66801 5.55699 5.91801L7.80699 7.60801L8.48699 8.16801L4.88699 5.40801C4.81192 5.3349 4.72237 5.27832 4.6241 5.24193C4.52584 5.20554 4.42104 5.19015 4.31645 5.19674C4.21187 5.20334 4.10984 5.23178 4.01692 5.28022C3.924 5.32867 3.84227 5.39605 3.77699 5.47801C3.46699 5.87801 3.71699 6.28801 4.03699 6.53801L6.28699 8.22801L7.63699 9.22801L4.70699 7.03801C4.6328 6.96512 4.54409 6.90869 4.44662 6.87239C4.34916 6.83609 4.24514 6.82074 4.14135 6.82735C4.03756 6.83395 3.93633 6.86236 3.84425 6.91072C3.75218 6.95908 3.67133 7.02631 3.60699 7.10801C3.54681 7.19237 3.50556 7.28872 3.48604 7.39048C3.46652 7.49224 3.46919 7.59701 3.49387 7.69765C3.51856 7.79828 3.56467 7.8924 3.62906 7.97358C3.69346 8.05475 3.77461 8.12108 3.86699 8.16801L6.11699 9.85801L7.23699 10.708L4.94699 9.01801C4.8088 8.89129 4.62609 8.82437 4.43874 8.83187C4.25139 8.83936 4.07461 8.92066 3.94699 9.05801C3.87714 9.14018 3.82636 9.23681 3.79831 9.34094C3.77026 9.44507 3.76563 9.55413 3.78475 9.66026C3.80388 9.7664 3.84628 9.86698 3.90891 9.95477C3.97154 10.0426 4.05285 10.1154 4.14699 10.168L8.14699 13.168C8.75346 13.5297 9.44132 13.7326 10.147 13.758C10.403 13.9145 10.6704 14.0515 10.947 14.168C11.7493 14.0168 12.4642 13.5664 12.947 12.908C13.474 12.1515 13.7726 11.2594 13.807 10.338Z" fill="#DDF6D1"/>
<path fill-rule="evenodd" clip-rule="evenodd" d="M13.7669 10.388C13.5646 10.1715 13.4082 9.91642 13.3069 9.638C13.3069 9.418 13.2469 9.208 13.2069 8.988C13.1756 8.60425 13.0521 8.23374 12.8469 7.908C12.2673 7.21735 11.8534 6.40324 11.6369 5.528C11.4769 4.998 11.3669 4.808 10.8969 4.798C10.8012 4.80669 10.7083 4.83445 10.6235 4.87962C10.5387 4.92479 10.4639 4.98646 10.4033 5.06101C10.3427 5.13556 10.2977 5.22147 10.2708 5.3137C10.244 5.40592 10.2358 5.50258 10.2469 5.598C10.2539 5.838 10.2739 6.078 10.3069 6.318C10.4869 7.238 10.6769 7.998 10.6969 8.048L6.4069 4.838C6.3326 4.76342 6.24326 4.70554 6.14482 4.66825C6.04638 4.63095 5.94111 4.61508 5.83605 4.62171C5.73099 4.62833 5.62855 4.6573 5.53558 4.70667C5.4426 4.75604 5.36123 4.82467 5.2969 4.908C5.24687 4.99035 5.21389 5.0819 5.19989 5.17723C5.1859 5.27256 5.19118 5.36973 5.21543 5.46298C5.23967 5.55623 5.28239 5.64367 5.34104 5.72011C5.3997 5.79655 5.4731 5.86044 5.5569 5.908L7.8069 7.608L8.4869 8.168L4.8869 5.458C4.81328 5.38285 4.7245 5.32426 4.62645 5.28614C4.52841 5.24801 4.42337 5.23123 4.31832 5.23691C4.21328 5.24258 4.11066 5.27059 4.0173 5.31906C3.92394 5.36753 3.84198 5.43535 3.7769 5.518C3.71835 5.60288 3.67845 5.6992 3.65982 5.80061C3.64119 5.90203 3.64426 6.00625 3.66882 6.10639C3.69339 6.20654 3.73889 6.30034 3.80233 6.38163C3.86577 6.46292 3.94572 6.52984 4.0369 6.578L6.2869 8.278L7.6369 9.278L4.7069 7.088C4.63204 7.01567 4.54277 6.95995 4.44492 6.92447C4.34707 6.88899 4.24283 6.87455 4.13901 6.8821C4.0352 6.88965 3.93415 6.91902 3.84246 6.96828C3.75076 7.01755 3.6705 7.0856 3.6069 7.168C3.2969 7.568 3.5369 7.978 3.8669 8.228L6.1169 9.908L7.2369 10.758L4.9469 9.058C4.80649 8.93601 4.62481 8.87223 4.43896 8.87966C4.25312 8.8871 4.07711 8.96519 3.9469 9.098C3.88568 9.17994 3.84212 9.27369 3.81895 9.37332C3.79579 9.47295 3.79354 9.57629 3.81233 9.67684C3.83113 9.77738 3.87056 9.87294 3.92814 9.95748C3.98573 10.042 4.06021 10.1137 4.1469 10.168L8.1469 13.168C8.4809 13.418 8.8669 13.589 9.2769 13.668L9.8569 13.758C10.1619 13.803 10.4569 13.901 10.7269 14.048C10.9136 14.1392 11.1277 14.157 11.3269 14.098C12.0302 13.85 12.6455 13.4015 13.0969 12.808C13.5197 12.2236 13.763 11.5285 13.7969 10.808C13.8223 10.6677 13.812 10.5233 13.7669 10.388Z" stroke="#165209" stroke-width="0.5" stroke-linecap="round" stroke-linejoin="round"/>
<path d="M6.5379 0.633L5.8889 2.193M7.8289 1.818L7.0989 2.738L7.8289 1.818ZM4.4939 0.625L4.5589 1.818L4.4939 0.625Z" stroke="#165209" stroke-linecap="round" stroke-linejoin="round"/>
</svg>
