<svg width="27" height="26" viewBox="0 0 27 26" fill="none" xmlns="http://www.w3.org/2000/svg">
<path d="M13.3 0C5.95 0 0 5.78 0 12.92C0 20.06 5.95 25.84 13.3 25.84C20.65 25.84 26.6 20.06 26.6 12.92C26.6 5.78 20.65 0 13.3 0ZM14 24.446V23.766C14 23.392 13.685 23.086 13.3 23.086C12.915 23.086 12.6 23.392 12.6 23.766V24.446C6.58 24.106 1.785 19.414 1.435 13.6H2.135C2.52 13.6 2.835 13.294 2.835 12.92C2.835 12.546 2.52 12.24 2.135 12.24H1.435C1.785 6.392 6.615 1.734 12.6 1.394V2.074C12.6 2.448 12.915 2.754 13.3 2.754C13.685 2.754 14 2.448 14 2.074V1.394C20.02 1.734 24.815 6.426 25.165 12.24H24.465C24.08 12.24 23.765 12.546 23.765 12.92C23.765 13.294 24.08 13.6 24.465 13.6H25.165C24.815 19.448 20.02 24.106 14 24.446ZM17.5 17C17.22 17.272 16.8 17.272 16.52 17L12.81 13.396C12.845 13.43 12.6 13.26 12.6 12.92V4.76C12.6 4.386 12.915 4.08 13.3 4.08C13.685 4.08 14 4.386 14 4.76V12.648L17.5 16.048C17.78 16.32 17.78 16.728 17.5 17Z" fill="black"/>
</svg>
