<svg width="16" height="14" viewBox="0 0 16 14" fill="none" xmlns="http://www.w3.org/2000/svg">
<path d="M12.5 4.5H3.5V3.75H12.5V4.5ZM15.5 0.75V13.5L11.75 10.5H1.25C1.05109 10.5 0.860322 10.421 0.71967 10.2803C0.579018 10.1397 0.5 9.94891 0.5 9.75V0.75C0.5 0.551088 0.579018 0.360322 0.71967 0.21967C0.860322 0.0790178 1.05109 0 1.25 0H14.75C14.9489 0 15.1397 0.0790178 15.2803 0.21967C15.421 0.360322 15.5 0.551088 15.5 0.75ZM14 1.5H2V9H12.275L14 10.38V1.5ZM11 6H5V6.75H11V6Z" fill="#8496A8"/>
</svg>
