<svg width="52" height="52" viewBox="0 0 52 52" fill="none" xmlns="http://www.w3.org/2000/svg">
<path d="M9.53735 0.319363C9.39375 0.356738 9.28405 0.500835 9.28503 0.649441V3.00918C9.28503 3.47523 9.53125 3.8886 9.90552 4.13113V4.57547V5.9291C9.98068 7.00185 10.3929 7.75174 10.9688 8.21267C10.9012 8.74462 10.6723 9.05187 10.2911 9.33462C9.84053 9.66888 9.18537 9.92929 8.49316 10.2249C7.80096 10.5205 7.06536 10.875 6.5 11.5008C5.93464 12.1265 5.57134 13.0039 5.57166 14.2683V14.5L5.76526 14.5778H11.1259L11.7336 11.2453C11.5076 10.9567 11.2819 10.644 11.2814 10.2566C11.2813 9.31664 12.0601 8.5364 13 8.5364V8.53799C13.9399 8.53799 14.7187 9.31822 14.7186 10.2582C14.7178 10.631 14.524 10.9495 14.3044 11.2484L14.8995 14.5778H20.2347L20.4283 14.5V14.2683C20.4283 13.034 20.0615 12.1648 19.5 11.5595C18.9385 10.9542 18.2109 10.6296 17.5275 10.3407C16.844 10.0519 16.1914 9.79375 15.7469 9.45047C15.3107 9.11344 15.0594 8.72597 15.0503 7.98098C15.6514 7.48398 16.0684 6.78345 16.0945 5.9291V4.57547V4.03433V2.91238C16.0946 1.832 15.2764 0.938259 14.2378 0.938259H13.3475H10.5244C10.3121 0.938259 10.1365 0.904337 10.0594 0.862087C9.98243 0.819025 9.96265 0.812591 9.96265 0.649441C9.96452 0.44201 9.73759 0.265494 9.53735 0.319363ZM13 9.3489C12.4992 9.3489 12.0938 9.75413 12.0939 10.255C12.0942 10.5188 12.2076 10.7504 12.4001 10.9199C12.4148 10.937 12.6305 11.0919 12.5334 11.3913L11.786 15.4887L13 16.1155L14.2378 15.495L13.5046 11.3913C13.4077 11.0296 13.6316 10.9199 13.6316 10.9199C13.8045 10.752 13.9056 10.5026 13.9061 10.255C13.9062 9.75413 13.5008 9.3489 13 9.3489ZM11.7908 11.3675C11.7951 11.3937 11.7886 11.421 11.7987 11.4389C11.8188 11.4754 11.837 11.4972 11.8511 11.5119C11.852 11.52 11.8534 11.5198 11.8542 11.5198C11.8535 11.519 11.8642 11.5299 11.8638 11.5293C11.8198 11.4906 11.8297 11.4117 11.7908 11.3675ZM14.2283 11.4325C14.2264 11.438 14.2265 11.4441 14.2219 11.45C14.2235 11.4419 14.2252 11.442 14.2267 11.442C14.229 11.438 14.2282 11.4349 14.2283 11.4325ZM12.5938 16.8201V17.5469H4.60364C4.06099 17.5469 3.61816 18.0013 3.61816 18.5419V20.7604H4.43066V18.5419C4.43066 18.4299 4.50462 18.3594 4.60364 18.3594H12.5938V20.7398H13.4062V18.3594H21.3964C21.4954 18.3594 21.5693 18.4301 21.5693 18.5419V20.7588H22.3818V18.5419C22.3818 18.0013 21.939 17.5469 21.3964 17.5469H13.4062V16.8201L12.9937 17.0264L12.5938 16.8201ZM0.671265 21.3571C0.299726 21.3571 0 21.633 0 21.976V25.072C0 25.415 0.299726 25.6909 0.671265 25.6909H7.37756C7.7491 25.6909 8.04724 25.415 8.04724 25.072V21.976C8.04724 21.633 7.7491 21.3571 7.37756 21.3571H0.671265ZM9.90552 21.3571C9.56256 21.3571 9.28503 21.633 9.28503 21.976V25.072C9.28503 25.415 9.56256 25.6909 9.90552 25.6909H16.0945C16.4374 25.6909 16.715 25.415 16.715 25.072V21.976C16.715 21.633 16.4374 21.3571 16.0945 21.3571H9.90552ZM18.6224 21.3571C18.2509 21.3571 17.9528 21.633 17.9528 21.976V25.072C17.9528 25.415 18.2509 25.6909 18.6224 25.6909H25.3287C25.7003 25.6909 26 25.415 26 25.072V21.976C26 21.633 25.7003 21.3571 25.3287 21.3571H18.6224Z" fill="white"/>
</svg>
