<svg width="27" height="27" viewBox="0 0 27 27" fill="none" xmlns="http://www.w3.org/2000/svg">
<g clip-path="url(#clip0)">
<path d="M22.1061 10.7154L22.7389 4.85136C22.8233 4.21855 22.1061 3.83886 21.5998 4.26074L18.4358 6.87636C18.0983 7.12948 17.592 7.04511 17.3811 6.66542L15.9889 4.21855C15.7358 3.79667 15.0608 3.79667 14.7655 4.26074L13.3733 6.70761C13.1623 7.0873 12.6561 7.17167 12.3186 6.91855L9.15451 4.30292C8.69045 3.92324 7.97326 4.30292 8.01545 4.89355L8.64826 10.7576C8.69045 11.0951 8.98576 11.3904 9.32326 11.3904H21.3467C21.7686 11.3482 22.0639 11.0951 22.1061 10.7154ZM8.90139 13.9217V14.681C8.90139 15.0607 9.1967 15.356 9.57639 15.356H21.0936C21.4733 15.356 21.7686 15.0607 21.7686 14.681V13.9217C21.7686 13.542 21.4733 13.2467 21.0936 13.2467H9.61858C9.23889 13.2045 8.90139 13.542 8.90139 13.9217Z" fill="#FEFFFF" stroke="#989898" stroke-width="1.5" stroke-miterlimit="10"/>
<path d="M23.2033 2.19375C23.6926 2.19375 24.0893 1.7971 24.0893 1.30781C24.0893 0.818523 23.6926 0.421875 23.2033 0.421875C22.714 0.421875 22.3174 0.818523 22.3174 1.30781C22.3174 1.7971 22.714 2.19375 23.2033 2.19375Z" fill="#FEFFFF" stroke="#989898" stroke-width="1.5" stroke-miterlimit="10"/>
<path d="M15.3986 2.19375C15.8879 2.19375 16.2846 1.7971 16.2846 1.30781C16.2846 0.818523 15.8879 0.421875 15.3986 0.421875C14.9093 0.421875 14.5127 0.818523 14.5127 1.30781C14.5127 1.7971 14.9093 2.19375 15.3986 2.19375Z" fill="#FEFFFF" stroke="#989898" stroke-width="1.5" stroke-miterlimit="10"/>
<path d="M7.55146 2.19375C8.04075 2.19375 8.4374 1.7971 8.4374 1.30781C8.4374 0.818523 8.04075 0.421875 7.55146 0.421875C7.06217 0.421875 6.66553 0.818523 6.66553 1.30781C6.66553 1.7971 7.06217 2.19375 7.55146 2.19375Z" fill="#FEFFFF" stroke="#989898" stroke-width="1.5" stroke-miterlimit="10"/>
</g>
<defs>
<clipPath id="clip0">
<rect width="27" height="27" fill="white"/>
</clipPath>
</defs>
</svg>
