<svg width="50" height="50" viewBox="0 0 50 50" fill="none" xmlns="http://www.w3.org/2000/svg">
<path d="M40.9374 19.8437L42.1093 8.98436C42.2655 7.81248 40.9374 7.10936 39.9999 7.89061L34.1405 12.7344C33.5155 13.2031 32.578 13.0469 32.1874 12.3437L29.6093 7.81248C29.1405 7.03123 27.8905 7.03123 27.3436 7.89061L24.7655 12.4219C24.3749 13.125 23.4374 13.2812 22.8124 12.8125L16.953 7.96873C16.0936 7.26561 14.7655 7.96873 14.8436 9.06248L16.0155 19.9219C16.0936 20.5469 16.6405 21.0937 17.2655 21.0937H39.5311C40.3124 21.0156 40.8593 20.5469 40.9374 19.8437ZM16.4843 25.7812V27.1875C16.4843 27.8906 17.0311 28.4375 17.7343 28.4375H39.0624C39.7655 28.4375 40.3124 27.8906 40.3124 27.1875V25.7812C40.3124 25.0781 39.7655 24.5312 39.0624 24.5312H17.8124C17.1093 24.4531 16.4843 25.0781 16.4843 25.7812Z" fill="#FECB4D" stroke="#2A3C65" stroke-width="1.5" stroke-miterlimit="10"/>
<path d="M42.9687 4.0625C43.8748 4.0625 44.6094 3.32797 44.6094 2.42188C44.6094 1.51578 43.8748 0.78125 42.9687 0.78125C42.0627 0.78125 41.3281 1.51578 41.3281 2.42188C41.3281 3.32797 42.0627 4.0625 42.9687 4.0625Z" fill="#FECB4D" stroke="#2A3C65" stroke-width="1.5" stroke-miterlimit="10"/>
<path d="M28.5156 4.0625C29.4217 4.0625 30.1562 3.32797 30.1562 2.42188C30.1562 1.51578 29.4217 0.78125 28.5156 0.78125C27.6095 0.78125 26.875 1.51578 26.875 2.42188C26.875 3.32797 27.6095 4.0625 28.5156 4.0625Z" fill="#FECB4D" stroke="#2A3C65" stroke-width="1.5" stroke-miterlimit="10"/>
<path d="M13.9844 4.0625C14.8905 4.0625 15.625 3.32797 15.625 2.42188C15.625 1.51578 14.8905 0.78125 13.9844 0.78125C13.0783 0.78125 12.3438 1.51578 12.3438 2.42188C12.3438 3.32797 13.0783 4.0625 13.9844 4.0625Z" fill="#FECB4D" stroke="#2A3C65" stroke-width="1.5" stroke-miterlimit="10"/>
</svg>
