<svg width="19" height="19" viewBox="0 0 19 19" fill="none" xmlns="http://www.w3.org/2000/svg">
<path d="M14 11.7499L16 9.74995V17.9999C16 18.2652 15.8946 18.5195 15.7071 18.7071C15.5196 18.8946 15.2652 18.9999 15 18.9999H1C0.734784 18.9999 0.48043 18.8946 0.292893 18.7071C0.105357 18.5195 0 18.2652 0 17.9999V3.99995C0 3.73473 0.105357 3.48038 0.292893 3.29284C0.48043 3.1053 0.734784 2.99995 1 2.99995H9.25L7.25 4.99995H2V16.9999H14V11.7499ZM19 3.74995C19.0048 3.88657 18.9816 4.02272 18.9317 4.15C18.8818 4.27727 18.8064 4.39297 18.71 4.48995L10.15 12.9999L4 14.9999L6 8.84995L14.55 0.299948C14.7374 0.113697 14.9908 0.00915527 15.255 0.00915527C15.5192 0.00915527 15.7726 0.113697 15.96 0.299948L18.71 2.99995C18.8027 3.09339 18.876 3.2042 18.9258 3.32604C18.9755 3.44788 19.0008 3.57834 19 3.70995V3.74995ZM14.93 5.57995L13.43 4.07995L7.37 10.1399L8.87 11.6399L14.93 5.57995ZM16.77 3.73995L15.27 2.23995L14.09 3.40995L15.59 4.90995L16.77 3.73995Z" fill="#8496A8"/>
</svg>
