<svg width="18" height="18" viewBox="0 0 18 18" fill="none" xmlns="http://www.w3.org/2000/svg">
<path d="M16.5001 2.50004H14.0001V0.833374H12.3334V2.50004H5.66675V0.833374H4.00008V2.50004H1.50008C1.27907 2.50004 1.06711 2.58784 0.910826 2.74412C0.754545 2.9004 0.666748 3.11236 0.666748 3.33337V16.6667C0.666748 16.8877 0.754545 17.0997 0.910826 17.256C1.06711 17.4122 1.27907 17.5 1.50008 17.5H12.4334L17.3334 12.6084V3.33337C17.3334 3.11236 17.2456 2.9004 17.0893 2.74412C16.9331 2.58784 16.7211 2.50004 16.5001 2.50004ZM2.33341 4.16671H4.00008V5.83337H5.66675V4.16671H12.3334V5.83337H14.0001V4.16671H15.6667V6.66671H2.33341V4.16671ZM11.5001 11.6667V15.8334H2.33341V7.50004H15.6667V11.6667H11.5001Z" fill="#C19091"/>
</svg>
