<svg width="34" height="27" viewBox="0 0 34 27" fill="none" xmlns="http://www.w3.org/2000/svg">
<path d="M30.6 3.375H17L14.603 0.995625C13.957 0.354375 13.09 0 12.189 0H3.4C1.53 0 0.017 1.51875 0.017 3.375L0 23.625C0 25.4813 1.53 27 3.4 27H30.6C32.47 27 34 25.4813 34 23.625V6.75C34 4.89375 32.47 3.375 30.6 3.375ZM28.9 23.625H5.1C4.165 23.625 3.4 22.8656 3.4 21.9375V8.4375C3.4 7.50938 4.165 6.75 5.1 6.75H28.9C29.835 6.75 30.6 7.50938 30.6 8.4375V21.9375C30.6 22.8656 29.835 23.625 28.9 23.625Z" fill="black"/>
</svg>
