<svg width="33" height="33" viewBox="0 0 33 33" fill="none" xmlns="http://www.w3.org/2000/svg">
<path d="M0.785714 5.48147H6.35643C6.54783 6.57591 7.11838 7.5677 7.96771 8.28238C8.81704 8.99706 9.89076 9.38885 11 9.38885C12.1092 9.38885 13.183 8.99706 14.0323 8.28238C14.8816 7.5677 15.4522 6.57591 15.6436 5.48147H32.2143C32.4227 5.48147 32.6225 5.39855 32.7699 5.25095C32.9172 5.10335 33 4.90316 33 4.69443C33 4.48569 32.9172 4.28551 32.7699 4.13791C32.6225 3.99031 32.4227 3.90739 32.2143 3.90739H15.6436C15.4522 2.81295 14.8816 1.82116 14.0323 1.10648C13.183 0.391798 12.1092 0 11 0C9.89076 0 8.81704 0.391798 7.96771 1.10648C7.11838 1.82116 6.54783 2.81295 6.35643 3.90739H0.785714C0.57733 3.90739 0.37748 3.99031 0.23013 4.13791C0.0827803 4.28551 0 4.48569 0 4.69443C0 4.90316 0.0827803 5.10335 0.23013 5.25095C0.37748 5.39855 0.57733 5.48147 0.785714 5.48147ZM11 1.54627C11.6216 1.54627 12.2292 1.73091 12.7461 2.07683C13.2629 2.42276 13.6657 2.91443 13.9036 3.48968C14.1415 4.06493 14.2037 4.69792 14.0825 5.3086C13.9612 5.91928 13.6619 6.48023 13.2223 6.92051C12.7828 7.36079 12.2228 7.66062 11.6131 7.78209C11.0035 7.90356 10.3716 7.84122 9.79728 7.60294C9.223 7.36467 8.73215 6.96116 8.38681 6.44345C8.04147 5.92574 7.85714 5.31707 7.85714 4.69443C7.85714 3.85948 8.18826 3.05874 8.77766 2.46835C9.36706 1.87795 10.1665 1.54627 11 1.54627ZM32.2143 15.713H26.6436C26.4522 14.6185 25.8816 13.6267 25.0323 12.9121C24.183 12.1974 23.1092 11.8056 22 11.8056C20.8908 11.8056 19.817 12.1974 18.9677 12.9121C18.1184 13.6267 17.5478 14.6185 17.3564 15.713H0.785714C0.57733 15.713 0.37748 15.7959 0.23013 15.9435C0.0827803 16.0911 0 16.2913 0 16.5C0 16.7087 0.0827803 16.9089 0.23013 17.0565C0.37748 17.2041 0.57733 17.287 0.785714 17.287H17.3564C17.5478 18.3815 18.1184 19.3733 18.9677 20.0879C19.817 20.8026 20.8908 21.1944 22 21.1944C23.1092 21.1944 24.183 20.8026 25.0323 20.0879C25.8816 19.3733 26.4522 18.3815 26.6436 17.287H32.2143C32.4227 17.287 32.6225 17.2041 32.7699 17.0565C32.9172 16.9089 33 16.7087 33 16.5C33 16.2913 32.9172 16.0911 32.7699 15.9435C32.6225 15.7959 32.4227 15.713 32.2143 15.713ZM22 19.6482C21.3784 19.6482 20.7708 19.4635 20.2539 19.1176C19.7371 18.7717 19.3343 18.28 19.0964 17.7047C18.8585 17.1295 18.7963 16.4965 18.9175 15.8858C19.0388 15.2751 19.3381 14.7142 19.7777 14.2739C20.2172 13.8336 20.7772 13.5338 21.3869 13.4123C21.9965 13.2909 22.6284 13.3532 23.2027 13.5915C23.777 13.8298 24.2678 14.2333 24.6132 14.751C24.9585 15.2687 25.1429 15.8774 25.1429 16.5C25.1429 17.3349 24.8117 18.1357 24.2223 18.7261C23.6329 19.3165 22.8335 19.6482 22 19.6482ZM32.2143 27.5185H15.6436C15.4522 26.4241 14.8816 25.4323 14.0323 24.7176C13.183 24.0029 12.1092 23.6112 11 23.6112C9.89076 23.6112 8.81704 24.0029 7.96771 24.7176C7.11838 25.4323 6.54783 26.4241 6.35643 27.5185H0.785714C0.57733 27.5185 0.37748 27.6015 0.23013 27.7491C0.0827803 27.8967 0 28.0968 0 28.3056C0 28.5143 0.0827803 28.7145 0.23013 28.8621C0.37748 29.0097 0.57733 29.0926 0.785714 29.0926H6.35643C6.54783 30.1871 7.11838 31.1788 7.96771 31.8935C8.81704 32.6082 9.89076 33 11 33C12.1092 33 13.183 32.6082 14.0323 31.8935C14.8816 31.1788 15.4522 30.1871 15.6436 29.0926H32.2143C32.4227 29.0926 32.6225 29.0097 32.7699 28.8621C32.9172 28.7145 33 28.5143 33 28.3056C33 28.0968 32.9172 27.8967 32.7699 27.7491C32.6225 27.6015 32.4227 27.5185 32.2143 27.5185ZM11 31.4537C10.3784 31.4537 9.77076 31.2691 9.25392 30.9232C8.73708 30.5772 8.33425 30.0856 8.09638 29.5103C7.8585 28.9351 7.79626 28.3021 7.91753 27.6914C8.0388 27.0807 8.33813 26.5198 8.77766 26.0795C9.2172 25.6392 9.7772 25.3394 10.3869 25.2179C10.9965 25.0964 11.6284 25.1588 12.2027 25.3971C12.777 25.6353 13.2678 26.0388 13.6132 26.5566C13.9585 27.0743 14.1429 27.6829 14.1429 28.3056C14.1429 29.1405 13.8117 29.9413 13.2223 30.5317C12.6329 31.122 11.8335 31.4537 11 31.4537Z" fill="black"/>
</svg>
