<svg width="19" height="15" viewBox="0 0 19 15" fill="none" xmlns="http://www.w3.org/2000/svg">
<path d="M16.5 2.25H9.5L8.26625 1.01625C7.93375 0.68375 7.4875 0.5 7.02375 0.5H2.5C1.5375 0.5 0.75875 1.2875 0.75875 2.25L0.75 12.75C0.75 13.7125 1.5375 14.5 2.5 14.5H16.5C17.4625 14.5 18.25 13.7125 18.25 12.75V4C18.25 3.0375 17.4625 2.25 16.5 2.25ZM15.625 12.75H3.375C2.89375 12.75 2.5 12.3562 2.5 11.875V4.875C2.5 4.39375 2.89375 4 3.375 4H15.625C16.1063 4 16.5 4.39375 16.5 4.875V11.875C16.5 12.3562 16.1063 12.75 15.625 12.75Z" fill="#016270"/>
</svg>
