<svg width="58" height="58" viewBox="0 0 58 58" fill="none" xmlns="http://www.w3.org/2000/svg">
<path d="M48.333 14.5H28.9997L25.5922 11.0925C24.6738 10.1742 23.4413 9.66669 22.1605 9.66669H9.66634C7.00801 9.66669 4.85717 11.8417 4.85717 14.5L4.83301 43.5C4.83301 46.1583 7.00801 48.3333 9.66634 48.3333H48.333C50.9913 48.3333 53.1663 46.1583 53.1663 43.5V19.3334C53.1663 16.675 50.9913 14.5 48.333 14.5ZM45.9163 43.5H12.083C10.7538 43.5 9.66634 42.4125 9.66634 41.0833V21.75C9.66634 20.4209 10.7538 19.3334 12.083 19.3334H45.9163C47.2455 19.3334 48.333 20.4209 48.333 21.75V41.0833C48.333 42.4125 47.2455 43.5 45.9163 43.5Z" fill="#016270"/>
</svg>
