<svg width="10" height="18" viewBox="0 0 10 18" fill="none" xmlns="http://www.w3.org/2000/svg">
<path d="M0.160156 4.60002C0.160156 3.8168 0.392406 3.05118 0.827537 2.39996C1.26267 1.74874 1.88113 1.24118 2.60473 0.941453C3.32833 0.64173 4.12455 0.563309 4.89271 0.716107C5.66088 0.868904 6.36648 1.24606 6.9203 1.79987C7.47412 2.35369 7.85127 3.05929 8.00407 3.82746C8.15686 4.59562 8.07844 5.39185 7.77872 6.11544C7.479 6.83904 6.97143 7.45751 6.32021 7.89264C5.669 8.32777 4.90337 8.56002 4.12016 8.56002C3.0704 8.55839 2.0641 8.14065 1.32181 7.39836C0.579522 6.65607 0.161785 5.64977 0.160156 4.60002ZM9.40016 14.72H8.08016V13.4C8.08016 13.2833 8.0338 13.1714 7.95128 13.0889C7.86877 13.0064 7.75685 12.96 7.64016 12.96C7.52346 12.96 7.41155 13.0064 7.32903 13.0889C7.24651 13.1714 7.20016 13.2833 7.20016 13.4V14.72H5.88016C5.76346 14.72 5.65155 14.7664 5.56903 14.8489C5.48651 14.9314 5.44016 15.0433 5.44016 15.16C5.44016 15.2767 5.48651 15.3886 5.56903 15.4711C5.65155 15.5537 5.76346 15.6 5.88016 15.6H7.20016V16.92C7.20016 17.0367 7.24651 17.1486 7.32903 17.2311C7.41155 17.3137 7.52346 17.36 7.64016 17.36C7.75685 17.36 7.86877 17.3137 7.95128 17.2311C8.0338 17.1486 8.08016 17.0367 8.08016 16.92V15.6H9.40016C9.51685 15.6 9.62877 15.5537 9.71128 15.4711C9.7938 15.3886 9.84016 15.2767 9.84016 15.16C9.84016 15.0433 9.7938 14.9314 9.71128 14.8489C9.62877 14.7664 9.51685 14.72 9.40016 14.72ZM6.32016 16.48H5.88016C5.53007 16.48 5.19432 16.3409 4.94678 16.0934C4.69923 15.8458 4.56016 15.5101 4.56016 15.16C4.56016 14.8099 4.69923 14.4742 4.94678 14.2266C5.19432 13.9791 5.53007 13.84 5.88016 13.84H6.32016V13.4C6.32016 13.0499 6.45923 12.7142 6.70678 12.4666C6.95432 12.2191 7.29007 12.08 7.64016 12.08C7.7818 12.0799 7.92217 12.1068 8.05376 12.1592C7.96549 11.4109 7.60598 10.7209 7.04326 10.2198C6.48054 9.71872 5.75365 9.44129 5.00016 9.44002H3.24016C2.42329 9.44002 1.63988 9.76452 1.06227 10.3421C0.484656 10.9197 0.160156 11.7031 0.160156 12.52V16.92C0.160156 17.0367 0.206513 17.1486 0.289029 17.2311C0.371545 17.3137 0.483461 17.36 0.600156 17.36H6.39936C6.34607 17.2195 6.31922 17.0703 6.32016 16.92V16.48Z" fill="white"/>
</svg>
