<svg width="16" height="16" viewBox="0 0 16 16" fill="none" xmlns="http://www.w3.org/2000/svg">
<path d="M8 15C11.866 15 15 11.866 15 8C15 4.13401 11.866 1 8 1C4.13401 1 1 4.13401 1 8C1 11.866 4.13401 15 8 15Z" fill="#DF704D"/>
<path fill-rule="evenodd" clip-rule="evenodd" d="M7.70999 5.00003C7.46661 4.75602 7.17749 4.56243 6.85918 4.43034C6.54087 4.29826 6.19962 4.23026 5.85499 4.23026C5.51036 4.23026 5.16912 4.29826 4.8508 4.43034C4.53249 4.56243 4.24337 4.75602 3.99999 5.00003C3.75357 5.24615 3.55807 5.53843 3.42469 5.86015C3.29131 6.18188 3.22266 6.52675 3.22266 6.87503C3.22266 7.22331 3.29131 7.56817 3.42469 7.8899C3.55807 8.21163 3.75357 8.50391 3.99999 8.75003L7.99999 12.75L12 8.75003C12.2464 8.50391 12.4419 8.21163 12.5753 7.8899C12.7087 7.56817 12.7773 7.22331 12.7773 6.87503C12.7773 6.52675 12.7087 6.18188 12.5753 5.86015C12.4419 5.53843 12.2464 5.24615 12 5.00003C11.7582 4.75524 11.4701 4.56107 11.1525 4.42887C10.8348 4.29666 10.494 4.22906 10.15 4.23003C9.80577 4.22794 9.46465 4.29502 9.14685 4.42729C8.82906 4.55956 8.54107 4.75433 8.29999 5.00003L7.99999 5.30003L7.70999 5.00003Z" fill="#FFF3F0" stroke="#77280C"/>
<path fill-rule="evenodd" clip-rule="evenodd" d="M7.70995 4.99997C7.46794 4.75355 7.17925 4.55782 6.86076 4.42421C6.54226 4.29059 6.20034 4.22178 5.85495 4.22178C5.50956 4.22178 5.16763 4.29059 4.84914 4.42421C4.53064 4.55782 4.24196 4.75355 3.99995 4.99997C3.51739 5.49488 3.24731 6.15875 3.24731 6.84997C3.24731 7.5412 3.51739 8.20506 3.99995 8.69997L7.99995 12.7L11.9999 8.69997C12.4825 8.20506 12.7526 7.5412 12.7526 6.84997C12.7526 6.15875 12.4825 5.49488 11.9999 4.99997C11.7587 4.75382 11.4709 4.5581 11.1533 4.4242C10.8357 4.29029 10.4946 4.22087 10.1499 4.21997C9.8051 4.21975 9.46372 4.28866 9.14596 4.42264C8.82821 4.55661 8.54054 4.75292 8.29995 4.99997L7.99995 5.24997L7.70995 4.99997Z" stroke="#77280C" stroke-linecap="round" stroke-linejoin="round"/>
</svg>
