<svg width="15" height="17" viewBox="0 0 15 17" fill="none" xmlns="http://www.w3.org/2000/svg">
<path d="M12.1325 8.25L10.52 6C9.70374 4.80041 9.13044 3.45252 8.83247 2.0325L8.55497 0.75H6.87497C6.37769 0.75 5.90078 0.947544 5.54914 1.29917C5.19751 1.65081 4.99997 2.12772 4.99997 2.625V3.06C4.9992 3.66556 5.07993 4.26847 5.23997 4.8525L5.74997 6.75H2.49497C1.99555 6.73882 1.51075 6.919 1.13985 7.25364C0.768961 7.58828 0.540039 8.05206 0.49997 8.55C0.485859 8.92896 0.587918 9.30318 0.79247 9.6225C0.530528 10.0302 0.43804 10.524 0.534692 10.9989C0.631345 11.4737 0.909505 11.8921 1.30997 12.165C1.19268 12.5999 1.23852 13.0626 1.43884 13.466C1.63916 13.8694 1.98013 14.1856 2.39747 14.355C2.3909 14.4449 2.3909 14.5351 2.39747 14.625C2.39743 15.1184 2.59189 15.5919 2.93867 15.9429C3.28545 16.2939 3.7566 16.4941 4.24997 16.5H7.63997C8.13051 16.4997 8.61915 16.4393 9.09497 16.32L11.345 15.75H14.75V8.25H12.1325ZM13.25 14.25H11.66L9.10247 14.865C8.74196 14.9554 8.37163 15.0007 7.99997 15H4.24997C4.07224 15 3.90168 14.9299 3.77531 14.805C3.64893 14.68 3.57694 14.5102 3.57497 14.3325V14.2275L3.68747 13.4775L2.93747 13.1775C2.81509 13.1258 2.71067 13.0392 2.6373 12.9285C2.56392 12.8178 2.52485 12.6878 2.52497 12.555C2.51844 12.5002 2.51844 12.4448 2.52497 12.39L2.74997 11.6775L2.20247 11.25C2.11243 11.1881 2.03877 11.1052 1.98782 11.0085C1.93688 10.9119 1.91016 10.8043 1.90997 10.695C1.91045 10.579 1.94149 10.4652 1.99997 10.365L2.34497 9.825L1.99997 9.285C1.92658 9.17128 1.88992 9.03775 1.89497 8.9025C1.91877 8.72093 2.00818 8.55434 2.14634 8.43414C2.28449 8.31394 2.46185 8.24845 2.64497 8.25H7.62497L6.64997 4.725C6.48872 4.14616 6.40549 3.54838 6.40247 2.9475V2.535C6.40247 2.43554 6.44198 2.34016 6.51231 2.26983C6.58263 2.19951 6.67801 2.16 6.77747 2.16H7.48997C7.81883 3.82067 8.4602 5.40374 9.37997 6.825L11.45 9.75H13.25V14.25Z" fill="#8496A8"/>
</svg>
