<svg width="18" height="14" viewBox="0 0 18 14" fill="none" xmlns="http://www.w3.org/2000/svg">
<path d="M16.5001 0.333374H1.50008C1.27907 0.333374 1.06711 0.421172 0.910826 0.577452C0.754545 0.733732 0.666748 0.945694 0.666748 1.16671V12.8334C0.666748 13.0544 0.754545 13.2663 0.910826 13.4226C1.06711 13.5789 1.27907 13.6667 1.50008 13.6667H16.5001C16.7211 13.6667 16.9331 13.5789 17.0893 13.4226C17.2456 13.2663 17.3334 13.0544 17.3334 12.8334V1.16671C17.3334 0.945694 17.2456 0.733732 17.0893 0.577452C16.9331 0.421172 16.7211 0.333374 16.5001 0.333374ZM15.6667 12H2.33341V2.00004H15.6667V12ZM9.83342 6.16671H4.00008V10.3334H9.83342V6.16671ZM9.00008 9.50004H4.83342V7.00004H9.00008V9.50004ZM10.6667 7.83337H14.0001V8.66671H10.6667V7.83337ZM10.6667 9.50004H14.0001V10.3334H10.6667V9.50004ZM10.6667 6.16671H14.0001V7.00004H10.6667V6.16671ZM14.0001 5.33337H4.00008V3.66671H14.0001V5.33337Z" fill="#EF7E37"/>
</svg>
