<svg width="18" height="16" viewBox="0 0 18 16" fill="none" xmlns="http://www.w3.org/2000/svg">
<path d="M18 8C17.9991 7.88231 17.9748 7.76598 17.9285 7.6578C17.8821 7.54962 17.8146 7.45178 17.73 7.37L10.5 0.5V5H8.25C6.26088 5 4.35322 5.79018 2.9467 7.1967C1.54018 8.60322 0.75 10.5109 0.75 12.5V15.5H2.1525C2.17417 14.2964 2.66857 13.1497 3.52885 12.3076C4.38914 11.4656 5.54621 10.9959 6.75 11H10.5V15.5L17.7225 8.645C17.8103 8.56211 17.8802 8.46212 17.928 8.3512C17.9757 8.24027 18.0002 8.12076 18 8ZM12 12.155V9.5H6.75C5.89246 9.51942 5.04861 9.71911 4.27331 10.0861C3.49802 10.4531 2.80864 10.9791 2.25 11.63C2.46039 10.1938 3.18428 8.88257 4.28753 7.9393C5.39077 6.99603 6.79856 6.48467 8.25 6.5H12V3.86L16.3575 8L12 12.155Z" fill="#8496A8"/>
</svg>
