<svg width="18" height="18" viewBox="0 0 18 18" fill="none" xmlns="http://www.w3.org/2000/svg">
<path d="M18 9C17.9991 8.88231 17.9748 8.76598 17.9285 8.6578C17.8821 8.54962 17.8146 8.45178 17.73 8.37L10.5 1.5V6H8.25C6.26088 6 4.35322 6.79018 2.9467 8.1967C1.54018 9.60322 0.75 11.5109 0.75 13.5V16.5H2.1525C2.17417 15.2964 2.66857 14.1497 3.52885 13.3076C4.38914 12.4656 5.54621 11.9959 6.75 12H10.5V16.5L17.7225 9.645C17.8103 9.56211 17.8802 9.46212 17.928 9.3512C17.9757 9.24027 18.0002 9.12076 18 9ZM12 13.155V10.5H6.75C5.89246 10.5194 5.04861 10.7191 4.27331 11.0861C3.49802 11.4531 2.80864 11.9791 2.25 12.63C2.46039 11.1938 3.18428 9.88257 4.28753 8.9393C5.39077 7.99603 6.79856 7.48467 8.25 7.5H12V4.86L16.3575 9L12 13.155Z" fill="white"/>
</svg>
