<svg width="16" height="16" viewBox="0 0 16 16" fill="none" xmlns="http://www.w3.org/2000/svg">
<path d="M8 15C11.866 15 15 11.866 15 8C15 4.13401 11.866 1 8 1C4.13401 1 1 4.13401 1 8C1 11.866 4.13401 15 8 15Z" fill="#1485BD"/>
<path fill-rule="evenodd" clip-rule="evenodd" d="M11.9299 7.25H11.3799C11.3299 7.25 11.2299 7.06 10.9799 6.79C10.6099 6.39 10.1999 5.88 9.90989 5.6C9.19031 4.97551 8.60222 4.21405 8.17989 3.36C7.93989 2.85 7.91989 2.62 7.42989 2.62C7.23636 2.64498 7.05954 2.74252 6.93517 2.89288C6.81079 3.04324 6.74815 3.23521 6.75989 3.43C6.75989 3.57 6.82989 4.06 6.85989 4.23C7.07408 5.01185 7.41165 5.75452 7.85989 6.43H8.39989H4.11989C3.99866 6.42821 3.8784 6.45178 3.76682 6.49919C3.65524 6.5466 3.5548 6.61682 3.47194 6.70532C3.38909 6.79383 3.32564 6.89867 3.28568 7.01314C3.24572 7.1276 3.23012 7.24915 3.23989 7.37C3.2553 7.60429 3.36068 7.82356 3.534 7.98197C3.70732 8.14038 3.93516 8.22566 4.16989 8.22H4.32989C4.22745 8.22259 4.12652 8.24534 4.03288 8.28695C3.93923 8.32857 3.85471 8.38823 3.78413 8.46252C3.71355 8.53681 3.6583 8.62429 3.62154 8.71994C3.58478 8.8156 3.56723 8.91756 3.56989 9.02C3.57162 9.2215 3.6484 9.41512 3.78524 9.56305C3.92207 9.71098 4.10913 9.80259 4.30989 9.81999C4.18769 9.91349 4.09504 10.0402 4.04305 10.185C3.99106 10.3299 3.98193 10.4866 4.01676 10.6365C4.05159 10.7863 4.12889 10.923 4.23942 11.03C4.34994 11.1371 4.48898 11.21 4.63989 11.24C4.54407 11.4063 4.51208 11.6018 4.54989 11.79C4.6011 11.9747 4.71255 12.137 4.86655 12.2512C5.02054 12.3653 5.20826 12.4247 5.39989 12.42H7.68989C7.98989 12.42 8.28889 12.382 8.57989 12.31L9.99989 11.89H11.8999C12.9199 11.85 13.1899 7.25 11.9299 7.25Z" fill="#E6F7FF"/>
<path d="M7.4299 6.42998H4.10991C3.98351 6.4288 3.85835 6.45486 3.74293 6.50639C3.62752 6.55791 3.52455 6.6337 3.44105 6.72859C3.35755 6.82348 3.29547 6.93524 3.25903 7.05627C3.2226 7.1773 3.21266 7.30476 3.22991 7.42998C3.24777 7.66249 3.35422 7.87927 3.52727 8.03557C3.70033 8.19188 3.92678 8.27579 4.15991 8.26998H4.31991C4.21746 8.27257 4.11654 8.29532 4.02289 8.33694C3.92925 8.37855 3.84472 8.43821 3.77414 8.5125C3.70356 8.5868 3.64832 8.67427 3.61156 8.76992C3.5748 8.86558 3.55724 8.96754 3.55991 9.06998C3.56358 9.27191 3.64077 9.46557 3.77699 9.61468C3.91321 9.76379 4.09913 9.85811 4.29991 9.87998C4.20428 9.955 4.12676 10.0506 4.07309 10.1596C4.01943 10.2687 3.991 10.3884 3.98991 10.51C3.99041 10.6976 4.0552 10.8793 4.17349 11.0249C4.29178 11.1705 4.4564 11.2711 4.63991 11.31C4.54339 11.4797 4.51143 11.6786 4.54991 11.87C4.60297 12.0528 4.71521 12.2129 4.86904 12.3251C5.02286 12.4373 5.20958 12.4953 5.39991 12.49H7.68991C7.98991 12.49 8.28891 12.452 8.57991 12.38L9.99991 11.91H11.8999C12.8999 11.91 13.1699 7.26998 11.8999 7.26998C11.7167 7.28007 11.5331 7.28007 11.3499 7.26998C11.2999 7.26998 11.1999 7.07998 10.9499 6.80998C10.5799 6.40998 10.1699 5.89998 9.87991 5.61998C9.17008 4.98973 8.59227 4.22498 8.17991 3.36998C8.10048 3.18129 7.99256 3.00591 7.85991 2.84998C7.69335 2.70992 7.47846 2.64087 7.2615 2.6577C7.04453 2.67453 6.84286 2.7759 6.69991 2.93998C6.59627 3.05206 6.51181 3.18044 6.44991 3.31998C6.40945 3.41654 6.37928 3.51709 6.35991 3.61998C6.33308 3.90191 6.35678 4.18637 6.42991 4.45998C6.49391 4.74798 6.58491 5.02898 6.69991 5.29998C6.88791 5.65298 7.10991 5.98798 7.35991 6.29998C7.39076 6.31899 7.41516 6.34687 7.4299 6.37998" stroke="#004B7C" stroke-linecap="round" stroke-linejoin="round"/>
</svg>
